<?xml version="1.0" encoding="utf-8"?>
<!-- created with bpmn-js / http://bpmn.io -->
<!DOCTYPE svg PUBLIC "-//W3C//DTD SVG 1.1//EN" "http://www.w3.org/Graphics/SVG/1.1/DTD/svg11.dtd">
<svg xmlns="http://www.w3.org/2000/svg" xmlns:xlink="http://www.w3.org/1999/xlink" width="682" height="275" viewBox="117 217 682 275" version="1.1"><defs><marker viewBox="0 0 20 20" markerWidth="10" markerHeight="10" orient="auto" refX="11" refY="10" id="markerSiosqdvri39c"><path d="M 1 5 L 11 10 L 1 15 Z" fill="#000000" style="stroke-width: 1px; stroke-linecap: round; stroke-dasharray: 10000px, 1px;"/></marker><marker viewBox="0 0 20 20" markerWidth="20" markerHeight="20" orient="auto" refX="6" refY="6" id="markerSiosqdvri39e"><circle cx="6" cy="6" r="3.5" fill="#ffffff" stroke="#000000" style="stroke-width: 1px; stroke-linecap: round; stroke-dasharray: 10000px, 1px;"/></marker><marker viewBox="0 0 20 20" markerWidth="20" markerHeight="20" orient="auto" refX="8.5" refY="5" id="markerSiosqdvri39g"><path d="m 1 5 l 0 -3 l 7 3 l -7 3 z" fill="#ffffff" stroke="#000000" style="stroke-width: 1px; stroke-linecap: butt; stroke-dasharray: 10000px, 1px;"/></marker><marker viewBox="0 0 20 20" markerWidth="10" markerHeight="10" orient="auto" refX="1" refY="10" id="markerSiosqdvri39i"><path d="M 11 5 L 1 10 L 11 15" fill="none" stroke="#000000" style="stroke-width: 1.5px; stroke-linecap: round; stroke-dasharray: 10000px, 1px;"/></marker><marker viewBox="0 0 20 20" markerWidth="10" markerHeight="10" orient="auto" refX="12" refY="10" id="markerSiosqdvri39k"><path d="M 1 5 L 11 10 L 1 15" fill="none" stroke="#000000" style="stroke-width: 1.5px; stroke-linecap: round; stroke-dasharray: 10000px, 1px;"/></marker><marker viewBox="0 0 20 20" markerWidth="10" markerHeight="10" orient="auto" refX="-1" refY="10" id="markerSiosqdvri39m"><path d="M 0 10 L 8 6 L 16 10 L 8 14 Z" fill="#ffffff" stroke="#000000" style="stroke-width: 1px; stroke-linecap: round; stroke-dasharray: 10000px, 1px;"/></marker><marker viewBox="0 0 20 20" markerWidth="10" markerHeight="10" orient="auto" refX="-5" refY="10" id="markerSiosqdvri39o"><path d="M 1 4 L 5 16" fill="#000000" stroke="#000000" style="stroke-width: 1px; stroke-linecap: round; stroke-dasharray: 10000px, 1px;"/></marker></defs><g class="djs-group" xmlns="http://www.w3.org/2000/svg"><g data-element-id="Participant_1ec3qab" class="djs-element djs-shape" transform="matrix(1,0,0,1,123,223)" style="display: block;"><g class="djs-visual"><rect x="0" y="0" width="670" height="263" rx="0" ry="0" stroke="#000000" fill="#ffffff" style="stroke-width: 2px; fill-opacity: 0.95;"></rect><polyline points="30,0 30,263 " fill="none" stroke="#000000" style="stroke-width: 2px;"></polyline><text class=" djs-label" transform="matrix(0,-1,1,0,0,263)" style="font-family: Arial, sans-serif; font-size: 12px;"><tspan x="131.5" y="15"></tspan></text></g><rect x="0" y="0" width="670" height="263" fill="none" stroke="#ffffff" style="stroke-opacity: 0; stroke-width: 15px;" class="djs-hit"></rect><rect x="-6" y="-6" width="682" height="275" fill="none" class="djs-outline"></rect></g><g class="djs-children"><g class="djs-group"><g data-element-id="Lane_04j9jse" class="djs-element djs-shape" transform="matrix(1,0,0,1,153,223)" style="display: block;"><g class="djs-visual"><rect x="0" y="0" width="640" height="109" rx="0" ry="0" stroke="#000000" fill="none" style="stroke-width: 2px;"></rect><text class=" djs-label" transform="matrix(0,-1,1,0,0,109)" style="font-family: Arial, sans-serif; font-size: 12px;"><tspan x="35.15625" y="18.33203125">žadatel</tspan></text></g><rect x="0" y="0" width="640" height="109" fill="none" stroke="#ffffff" style="stroke-opacity: 0; stroke-width: 15px;" class="djs-hit"></rect><rect x="-6" y="-6" width="652" height="121" fill="none" class="djs-outline"></rect></g></g><g class="djs-group"><g data-element-id="Lane_17rwdv9" class="djs-element djs-shape" transform="matrix(1,0,0,1,153,332)" style="display: block;"><g class="djs-visual"><rect x="0" y="0" width="640" height="154" rx="0" ry="0" stroke="#000000" fill="none" style="stroke-width: 2px;"></rect><text class=" djs-label" transform="matrix(0,-1,1,0,0,154)" style="font-family: Arial, sans-serif; font-size: 12px;"><tspan x="48.328125" y="18.33203125">stvrzovatel</tspan></text></g><rect x="0" y="0" width="640" height="154" fill="none" stroke="#ffffff" style="stroke-opacity: 0; stroke-width: 15px;" class="djs-hit"></rect><rect x="-6" y="-6" width="652" height="166" fill="none" class="djs-outline"></rect></g></g><g class="djs-group"><g data-element-id="ExclusiveGateway_1pqua8k" transform="matrix(1,0,0,1,506,367)" class="djs-element djs-shape" style="display: block;"><g class="djs-visual"><polygon points="25,0,50,25,25,50,0,25" stroke="#000000" fill="#ffffff" style="stroke-width: 2px;"></polygon><path d="m 16,15 7.42857142857143,9.714285714285715 -7.42857142857143,9.714285714285715 3.428571428571429,0 5.714285714285715,-7.464228571428572 5.714285714285715,7.464228571428572 3.428571428571429,0 -7.42857142857143,-9.714285714285715 7.42857142857143,-9.714285714285715 -3.428571428571429,0 -5.714285714285715,7.464228571428572 -5.714285714285715,-7.464228571428572 -3.428571428571429,0 z" fill="#000000" stroke="#000000" style="stroke-width: 1px;"></path></g><rect x="0" y="0" width="50" height="50" fill="none" stroke="#ffffff" style="stroke-opacity: 0; stroke-width: 15px;" class="djs-hit"></rect><rect x="-6" y="-6" width="62" height="62" fill="none" class="djs-outline"></rect></g></g><g class="djs-group"><g data-element-id="StartEvent_1" transform="matrix(1,0,0,1,188,256)" class="djs-element djs-shape" style="display: block;"><g class="djs-visual"><circle cx="18" cy="18" r="18" stroke="#000000" fill="#ffffff" style="stroke-width: 2px;"></circle></g><rect x="0" y="0" width="36" height="36" fill="none" stroke="#ffffff" style="stroke-opacity: 0; stroke-width: 15px;" class="djs-hit"></rect><rect x="-6" y="-6" width="48" height="48" fill="none" class="djs-outline"></rect></g></g><g class="djs-group"><g data-element-id="ExclusiveGateway_0to0xbz" transform="matrix(1,0,0,1,268.8661,249)" class="djs-element djs-shape" style="display: block;"><g class="djs-visual"><polygon points="25,0,50,25,25,50,0,25" stroke="#000000" fill="#ffffff" style="stroke-width: 2px;"></polygon><path d="m 16,15 7.42857142857143,9.714285714285715 -7.42857142857143,9.714285714285715 3.428571428571429,0 5.714285714285715,-7.464228571428572 5.714285714285715,7.464228571428572 3.428571428571429,0 -7.42857142857143,-9.714285714285715 7.42857142857143,-9.714285714285715 -3.428571428571429,0 -5.714285714285715,7.464228571428572 -5.714285714285715,-7.464228571428572 -3.428571428571429,0 z" fill="#000000" stroke="#000000" style="stroke-width: 1px;"></path></g><rect x="0" y="0" width="50" height="50" fill="none" stroke="#ffffff" style="stroke-opacity: 0; stroke-width: 15px;" class="djs-hit"></rect><rect x="-6" y="-6" width="62" height="62" fill="none" class="djs-outline"></rect></g></g><g class="djs-group"><g data-element-id="StartEvent_1_label" class="djs-element djs-shape" transform="matrix(1,0,0,1,161,292)" style="display: block;"><g class="djs-visual"><text class=" djs-label" style="font-family: Arial, sans-serif; font-size: 11px;"><tspan x="25.4765625" y="12">začátek</tspan></text></g><rect x="0" y="0" width="90" height="20" fill="none" stroke="#ffffff" style="stroke-opacity: 0; stroke-width: 15px;" class="djs-hit"></rect><rect x="-6" y="-6" width="102" height="32" fill="none" class="djs-outline"></rect></g></g><g class="djs-group"><g data-element-id="ExclusiveGateway_0to0xbz_label" class="djs-element djs-shape" transform="matrix(1,0,0,1,248.8661,299)" style="display: none;"><g class="djs-visual"><text class=" djs-label" style="font-family: Arial, sans-serif; font-size: 11px;"><tspan x="45" y="0"></tspan></text></g><rect x="0" y="0" width="90" height="20" fill="none" stroke="#ffffff" style="stroke-opacity: 0; stroke-width: 15px;" class="djs-hit"></rect><rect x="-6" y="-6" width="102" height="32" fill="none" class="djs-outline"></rect></g></g><g class="djs-group"><g data-element-id="ManualTask_0q6oxk3" class="djs-element djs-shape" transform="matrix(1,0,0,1,377,234)" style="display: block;"><g class="djs-visual"><rect x="0" y="0" width="100" height="80" rx="10" ry="10" stroke="#000000" fill="#ffffff" style="stroke-width: 2px;"></rect><text class=" djs-label" style="font-family: Arial, sans-serif; font-size: 12px;"><tspan x="31.65625" y="30.00390625">úprava </tspan><tspan x="20.984375" y="43.33203125">cestovního </tspan><tspan x="30.328125" y="56.66015625">příkazu </tspan></text><path d="m 17,15 c 0.234,-0.01 5.604,0.008 8.029,0.004 0.808,0 1.271,-0.172 1.417,-0.752 0.227,-0.898 -0.334,-1.314 -1.338,-1.316 -2.467,-0.01 -7.886,-0.004 -8.108,-0.004 -0.014,-0.079 0.016,-0.533 0,-0.61 0.195,-0.042 8.507,0.006 9.616,0.002 0.877,-0.007 1.35,-0.438 1.353,-1.208 0.003,-0.768 -0.479,-1.09 -1.35,-1.091 -2.968,-0.002 -9.619,-0.013 -9.619,-0.013 v -0.591 c 0,0 5.052,-0.016 7.225,-0.016 0.888,-0.002 1.354,-0.416 1.351,-1.193 -0.006,-0.761 -0.492,-1.196 -1.361,-1.196 -3.473,-0.005 -10.86,-0.003 -11.0829995,-0.003 -0.022,-0.047 -0.045,-0.094 -0.069,-0.139 0.3939995,-0.319 2.0409995,-1.626 2.4149995,-2.017 0.469,-0.4870005 0.519,-1.1650005 0.162,-1.6040005 -0.414,-0.511 -0.973,-0.5 -1.48,-0.236 -1.4609995,0.764 -6.5999995,3.6430005 -7.7329995,4.2710005 -0.9,0.499 -1.516,1.253 -1.882,2.19 -0.37000002,0.95 -0.17,2.01 -0.166,2.979 0.004,0.718 -0.27300002,1.345 -0.055,2.063 0.629,2.087 2.425,3.312 4.859,3.318 4.6179995,0.014 9.2379995,-0.139 13.8569995,-0.158 0.755,-0.004 1.171,-0.301 1.182,-1.033 0.012,-0.754 -0.423,-0.969 -1.183,-0.973 -1.778,-0.01 -5.824,-0.004 -6.04,-0.004 10e-4,-0.084 0.003,-0.586 10e-4,-0.67 z" fill="#ffffff" stroke="#000000" style="stroke-width: 0.25px;"></path></g><rect x="0" y="0" width="100" height="80" fill="none" stroke="#ffffff" style="stroke-opacity: 0; stroke-width: 15px;" class="djs-hit"></rect><rect x="-6" y="-6" width="112" height="92" fill="none" class="djs-outline"></rect></g></g><g class="djs-group"><g data-element-id="ManualTask_1j5bo3i" class="djs-element djs-shape" transform="matrix(1,0,0,1,377,352)" style="display: block;"><g class="djs-visual"><rect x="0" y="0" width="100" height="80" rx="10" ry="10" stroke="#000000" fill="#ffffff" style="stroke-width: 2px;"></rect><text class=" djs-label" style="font-family: Arial, sans-serif; font-size: 12px;"><tspan x="23.65625" y="23.33984375">kontrola a </tspan><tspan x="25.984375" y="36.66796875">evaluace </tspan><tspan x="20.984375" y="49.99609375">cestovního </tspan><tspan x="30.328125" y="63.32421875">příkazu </tspan></text><path d="m 17,15 c 0.234,-0.01 5.604,0.008 8.029,0.004 0.808,0 1.271,-0.172 1.417,-0.752 0.227,-0.898 -0.334,-1.314 -1.338,-1.316 -2.467,-0.01 -7.886,-0.004 -8.108,-0.004 -0.014,-0.079 0.016,-0.533 0,-0.61 0.195,-0.042 8.507,0.006 9.616,0.002 0.877,-0.007 1.35,-0.438 1.353,-1.208 0.003,-0.768 -0.479,-1.09 -1.35,-1.091 -2.968,-0.002 -9.619,-0.013 -9.619,-0.013 v -0.591 c 0,0 5.052,-0.016 7.225,-0.016 0.888,-0.002 1.354,-0.416 1.351,-1.193 -0.006,-0.761 -0.492,-1.196 -1.361,-1.196 -3.473,-0.005 -10.86,-0.003 -11.0829995,-0.003 -0.022,-0.047 -0.045,-0.094 -0.069,-0.139 0.3939995,-0.319 2.0409995,-1.626 2.4149995,-2.017 0.469,-0.4870005 0.519,-1.1650005 0.162,-1.6040005 -0.414,-0.511 -0.973,-0.5 -1.48,-0.236 -1.4609995,0.764 -6.5999995,3.6430005 -7.7329995,4.2710005 -0.9,0.499 -1.516,1.253 -1.882,2.19 -0.37000002,0.95 -0.17,2.01 -0.166,2.979 0.004,0.718 -0.27300002,1.345 -0.055,2.063 0.629,2.087 2.425,3.312 4.859,3.318 4.6179995,0.014 9.2379995,-0.139 13.8569995,-0.158 0.755,-0.004 1.171,-0.301 1.182,-1.033 0.012,-0.754 -0.423,-0.969 -1.183,-0.973 -1.778,-0.01 -5.824,-0.004 -6.04,-0.004 10e-4,-0.084 0.003,-0.586 10e-4,-0.67 z" fill="#ffffff" stroke="#000000" style="stroke-width: 0.25px;"></path></g><rect x="0" y="0" width="100" height="80" fill="none" stroke="#ffffff" style="stroke-opacity: 0; stroke-width: 15px;" class="djs-hit"></rect><rect x="-6" y="-6" width="112" height="92" fill="none" class="djs-outline"></rect></g></g><g class="djs-group"><g data-element-id="ExclusiveGateway_1pqua8k_label" class="djs-element djs-shape" transform="matrix(1,0,0,1,486,337)" style="display: block;"><g class="djs-visual"><text class=" djs-label" style="font-family: Arial, sans-serif; font-size: 11px;"><tspan x="26.734375" y="12">chybně </tspan><tspan x="19.171875" y="24">vyplněno? </tspan></text></g><rect x="0" y="0" width="90" height="20" fill="none" stroke="#ffffff" style="stroke-opacity: 0; stroke-width: 15px;" class="djs-hit"></rect><rect x="-6" y="-6" width="102" height="32" fill="none" class="djs-outline"></rect></g></g><g class="djs-group"><g data-element-id="ExclusiveGateway_08xiyqc" transform="matrix(1,0,0,1,581.6454,367)" class="djs-element djs-shape" style="display: block;"><g class="djs-visual"><polygon points="25,0,50,25,25,50,0,25" stroke="#000000" fill="#ffffff" style="stroke-width: 2px;"></polygon><path d="m 16,15 7.42857142857143,9.714285714285715 -7.42857142857143,9.714285714285715 3.428571428571429,0 5.714285714285715,-7.464228571428572 5.714285714285715,7.464228571428572 3.428571428571429,0 -7.42857142857143,-9.714285714285715 7.42857142857143,-9.714285714285715 -3.428571428571429,0 -5.714285714285715,7.464228571428572 -5.714285714285715,-7.464228571428572 -3.428571428571429,0 z" fill="#000000" stroke="#000000" style="stroke-width: 1px;"></path></g><rect x="0" y="0" width="50" height="50" fill="none" stroke="#ffffff" style="stroke-opacity: 0; stroke-width: 15px;" class="djs-hit"></rect><rect x="-6" y="-6" width="62" height="62" fill="none" class="djs-outline"></rect></g></g><g class="djs-group"><g data-element-id="EndEvent_1uchyau" transform="matrix(1,0,0,1,709.6454,341.4306)" class="djs-element djs-shape" style="display: block;"><g class="djs-visual"><circle cx="18" cy="18" r="18" stroke="#000000" fill="#ffffff" style="stroke-width: 4px;"></circle></g><rect x="0" y="0" width="36" height="36" fill="none" stroke="#ffffff" style="stroke-opacity: 0; stroke-width: 15px;" class="djs-hit"></rect><rect x="-6" y="-6" width="48" height="48" fill="none" class="djs-outline"></rect></g></g><g class="djs-group"><g data-element-id="EndEvent_0dw6x0j" transform="matrix(1,0,0,1,710,410.4306)" class="djs-element djs-shape" style="display: block;"><g class="djs-visual"><circle cx="18" cy="18" r="18" stroke="#000000" fill="#ffffff" style="stroke-width: 4px;"></circle></g><rect x="0" y="0" width="36" height="36" fill="none" stroke="#ffffff" style="stroke-opacity: 0; stroke-width: 15px;" class="djs-hit"></rect><rect x="-6" y="-6" width="48" height="48" fill="none" class="djs-outline"></rect></g></g><g class="djs-group"><g data-element-id="ExclusiveGateway_08xiyqc_label" class="djs-element djs-shape" transform="matrix(1,0,0,1,614.6454,382)" style="display: block;"><g class="djs-visual"><text class=" djs-label" style="font-family: Arial, sans-serif; font-size: 11px;"><tspan x="28.625" y="12">povolit </tspan><tspan x="11.9296875" y="24">vycestování? </tspan></text></g><rect x="0" y="0" width="90" height="20" fill="none" stroke="#ffffff" style="stroke-opacity: 0; stroke-width: 15px;" class="djs-hit"></rect><rect x="-6" y="-6" width="102" height="32" fill="none" class="djs-outline"></rect></g></g><g class="djs-group"><g data-element-id="EndEvent_1uchyau_label" class="djs-element djs-shape" transform="matrix(1,0,0,1,682.6454,377.4306)" style="display: block;"><g class="djs-visual"><text class=" djs-label" style="font-family: Arial, sans-serif; font-size: 11px;"><tspan x="20.1171875" y="12">zamítnuto</tspan></text></g><rect x="0" y="0" width="90" height="20" fill="none" stroke="#ffffff" style="stroke-opacity: 0; stroke-width: 15px;" class="djs-hit"></rect><rect x="-6" y="-6" width="102" height="32" fill="none" class="djs-outline"></rect></g></g><g class="djs-group"><g data-element-id="EndEvent_0dw6x0j_label" class="djs-element djs-shape" transform="matrix(1,0,0,1,683,446.4306)" style="display: block;"><g class="djs-visual"><text class=" djs-label" style="font-family: Arial, sans-serif; font-size: 11px;"><tspan x="22" y="12">povoleno</tspan></text></g><rect x="0" y="0" width="90" height="20" fill="none" stroke="#ffffff" style="stroke-opacity: 0; stroke-width: 15px;" class="djs-hit"></rect><rect x="-6" y="-6" width="102" height="32" fill="none" class="djs-outline"></rect></g></g><g class="djs-group"><g data-element-id="SequenceFlow_023nibu" class="djs-element djs-connection" style="display: block;"><g class="djs-visual"><path d="m  427,314L427,352 " fill="none" stroke="#000000" style="stroke-width: 2px; stroke-linejoin: round; marker-end: url(&quot;#markerSiosqdvri39c&quot;);"></path></g><polyline points="427,314 427,352 " fill="none" stroke="#ffffff" style="stroke-opacity: 0; stroke-width: 15px;" class="djs-hit"></polyline><rect x="421" y="308" width="12" height="50" fill="none" class="djs-outline"></rect></g></g><g class="djs-group"><g data-element-id="SequenceFlow_0lz79pi" class="djs-element djs-connection" style="display: block;"><g class="djs-visual"><path d="m  477,392L506,392 " fill="none" stroke="#000000" style="stroke-width: 2px; stroke-linejoin: round; marker-end: url(&quot;#markerSiosqdvri39c&quot;);"></path></g><polyline points="477,392 506,392 " fill="none" stroke="#ffffff" style="stroke-opacity: 0; stroke-width: 15px;" class="djs-hit"></polyline><rect x="471" y="386" width="41" height="12" fill="none" class="djs-outline"></rect></g></g><g class="djs-group"><g data-element-id="SequenceFlow_0lz79pi_label" class="djs-element djs-shape" transform="matrix(1,0,0,1,446.5,367)" style="display: none;"><g class="djs-visual"><text class=" djs-label" style="font-family: Arial, sans-serif; font-size: 11px;"><tspan x="45" y="0"></tspan></text></g><rect x="0" y="0" width="90" height="20" fill="none" stroke="#ffffff" style="stroke-opacity: 0; stroke-width: 15px;" class="djs-hit"></rect><rect x="-6" y="-6" width="102" height="32" fill="none" class="djs-outline"></rect></g></g><g class="djs-group"><g data-element-id="SequenceFlow_0u15m8d" class="djs-element djs-connection" style="display: block;"><g class="djs-visual"><path d="m  531,417L531,454 L294,454 L294,299 " fill="none" stroke="#000000" style="stroke-width: 2px; stroke-linejoin: round; marker-end: url(&quot;#markerSiosqdvri39c&quot;);"></path></g><polyline points="531,417 531,454 294,454 294,299 " fill="none" stroke="#ffffff" style="stroke-opacity: 0; stroke-width: 15px;" class="djs-hit"></polyline><rect x="288" y="293" width="249" height="167" fill="none" class="djs-outline"></rect></g></g><g class="djs-group"><g data-element-id="SequenceFlow_023nibu_label" class="djs-element djs-shape" transform="matrix(1,0,0,1,272,299.5)" style="display: none;"><g class="djs-visual"><text class=" djs-label" style="font-family: Arial, sans-serif; font-size: 11px;"><tspan x="45" y="0"></tspan></text></g><rect x="0" y="0" width="90" height="20" fill="none" stroke="#ffffff" style="stroke-opacity: 0; stroke-width: 15px;" class="djs-hit"></rect><rect x="-6" y="-6" width="102" height="32" fill="none" class="djs-outline"></rect></g></g><g class="djs-group"><g data-element-id="SequenceFlow_0owkq7y" class="djs-element djs-connection" style="display: block;"><g class="djs-visual"><path d="m  224,274L269,274 " fill="none" stroke="#000000" style="stroke-width: 2px; stroke-linejoin: round; marker-end: url(&quot;#markerSiosqdvri39c&quot;);"></path></g><polyline points="224,274 269,274 " fill="none" stroke="#ffffff" style="stroke-opacity: 0; stroke-width: 15px;" class="djs-hit"></polyline><rect x="218" y="268" width="57" height="12" fill="none" class="djs-outline"></rect></g></g><g class="djs-group"><g data-element-id="SequenceFlow_08sl6rd" class="djs-element djs-connection" style="display: block;"><g class="djs-visual"><path d="m  319,274L377,274 " fill="none" stroke="#000000" style="stroke-width: 2px; stroke-linejoin: round; marker-end: url(&quot;#markerSiosqdvri39c&quot;);"></path></g><polyline points="319,274 377,274 " fill="none" stroke="#ffffff" style="stroke-opacity: 0; stroke-width: 15px;" class="djs-hit"></polyline><rect x="313" y="268" width="70" height="12" fill="none" class="djs-outline"></rect></g></g><g class="djs-group"><g data-element-id="SequenceFlow_0owkq7y_label" class="djs-element djs-shape" transform="matrix(1,0,0,1,201.5,249)" style="display: none;"><g class="djs-visual"><text class=" djs-label" style="font-family: Arial, sans-serif; font-size: 11px;"><tspan x="45" y="0"></tspan></text></g><rect x="0" y="0" width="90" height="20" fill="none" stroke="#ffffff" style="stroke-opacity: 0; stroke-width: 15px;" class="djs-hit"></rect><rect x="-6" y="-6" width="102" height="32" fill="none" class="djs-outline"></rect></g></g><g class="djs-group"><g data-element-id="SequenceFlow_08sl6rd_label" class="djs-element djs-shape" transform="matrix(1,0,0,1,303,249)" style="display: none;"><g class="djs-visual"><text class=" djs-label" style="font-family: Arial, sans-serif; font-size: 11px;"><tspan x="45" y="0"></tspan></text></g><rect x="0" y="0" width="90" height="20" fill="none" stroke="#ffffff" style="stroke-opacity: 0; stroke-width: 15px;" class="djs-hit"></rect><rect x="-6" y="-6" width="102" height="32" fill="none" class="djs-outline"></rect></g></g><g class="djs-group"><g data-element-id="SequenceFlow_0u15m8d_label" class="djs-element djs-shape" transform="matrix(1,0,0,1,469.5,426)" style="display: block;"><g class="djs-visual"><text class=" djs-label" style="font-family: Arial, sans-serif; font-size: 11px;"><tspan x="35.546875" y="12">ano</tspan></text></g><rect x="0" y="0" width="90" height="20" fill="none" stroke="#ffffff" style="stroke-opacity: 0; stroke-width: 15px;" class="djs-hit"></rect><rect x="-6" y="-6" width="102" height="32" fill="none" class="djs-outline"></rect></g></g><g class="djs-group"><g data-element-id="SequenceFlow_14f358y" class="djs-element djs-connection" style="display: block;"><g class="djs-visual"><path d="m  556,392L582,392 " fill="none" stroke="#000000" style="stroke-width: 2px; stroke-linejoin: round; marker-end: url(&quot;#markerSiosqdvri39c&quot;);"></path></g><polyline points="556,392 582,392 " fill="none" stroke="#ffffff" style="stroke-opacity: 0; stroke-width: 15px;" class="djs-hit"></polyline><rect x="550" y="386" width="38" height="12" fill="none" class="djs-outline"></rect></g></g><g class="djs-group"><g data-element-id="SequenceFlow_14f358y_label" class="djs-element djs-shape" transform="matrix(1,0,0,1,531.5,367)" style="display: none;"><g class="djs-visual"><text class=" djs-label" style="font-family: Arial, sans-serif; font-size: 11px;"><tspan x="45" y="0"></tspan></text></g><rect x="0" y="0" width="90" height="20" fill="none" stroke="#ffffff" style="stroke-opacity: 0; stroke-width: 15px;" class="djs-hit"></rect><rect x="-6" y="-6" width="102" height="32" fill="none" class="djs-outline"></rect></g></g><g class="djs-group"><g data-element-id="SequenceFlow_0osoaj4" class="djs-element djs-connection" style="display: block;"><g class="djs-visual"><path d="m  607,367L607,359 L710,359 " fill="none" stroke="#000000" style="stroke-width: 2px; stroke-linejoin: round; marker-end: url(&quot;#markerSiosqdvri39c&quot;);"></path></g><polyline points="607,367 607,359 710,359 " fill="none" stroke="#ffffff" style="stroke-opacity: 0; stroke-width: 15px;" class="djs-hit"></polyline><rect x="601" y="353" width="115" height="20" fill="none" class="djs-outline"></rect></g></g><g class="djs-group"><g data-element-id="SequenceFlow_1ftatlh" class="djs-element djs-connection" style="display: block;"><g class="djs-visual"><path d="m  607,417L607,428 L710,428 " fill="none" stroke="#000000" style="stroke-width: 2px; stroke-linejoin: round; marker-end: url(&quot;#markerSiosqdvri39c&quot;);"></path></g><polyline points="607,417 607,428 710,428 " fill="none" stroke="#ffffff" style="stroke-opacity: 0; stroke-width: 15px;" class="djs-hit"></polyline><rect x="601" y="411" width="115" height="23" fill="none" class="djs-outline"></rect></g></g><g class="djs-group"><g data-element-id="SequenceFlow_0osoaj4_label" class="djs-element djs-shape" transform="matrix(1,0,0,1,562,337)" style="display: block;"><g class="djs-visual"><text class=" djs-label" style="font-family: Arial, sans-serif; font-size: 11px;"><tspan x="38.703125" y="12">ne</tspan></text></g><rect x="0" y="0" width="90" height="20" fill="none" stroke="#ffffff" style="stroke-opacity: 0; stroke-width: 15px;" class="djs-hit"></rect><rect x="-6" y="-6" width="102" height="32" fill="none" class="djs-outline"></rect></g></g><g class="djs-group"><g data-element-id="SequenceFlow_1ftatlh_label" class="djs-element djs-shape" transform="matrix(1,0,0,1,562,430.5)" style="display: block;"><g class="djs-visual"><text class=" djs-label" style="font-family: Arial, sans-serif; font-size: 11px;"><tspan x="35.546875" y="12">ano</tspan></text></g><rect x="0" y="0" width="90" height="20" fill="none" stroke="#ffffff" style="stroke-opacity: 0; stroke-width: 15px;" class="djs-hit"></rect><rect x="-6" y="-6" width="102" height="32" fill="none" class="djs-outline"></rect></g></g></g></g></svg>