<?xml version="1.0" encoding="UTF-8" standalone="yes"?>
<svg xmlns="http://www.w3.org/2000/svg" xmlns:xlink="http://www.w3.org/1999/xlink" height="354px" style="width:305px;height:354px;" version="1.1" viewBox="0 0 305 354" width="305px"><defs><filter height="300%" id="f1" width="300%" x="-1" y="-1"><feGaussianBlur result="blurOut" stdDeviation="2.0"/><feColorMatrix in="blurOut" result="blurOut2" type="matrix" values="0 0 0 0 0 0 0 0 0 0 0 0 0 0 0 0 0 0 .4 0"/><feOffset dx="4.0" dy="4.0" in="blurOut2" result="blurOut3"/><feBlend in="SourceGraphic" in2="blurOut3" mode="normal"/></filter></defs><g><ellipse cx="154" cy="143" fill="#FEFECE" filter="url(#f1)" rx="8" ry="8" style="stroke: #A80036; stroke-width: 2.0;"/><path d="M154,151 L154,178 M141,159 L167,159 M154,178 L141,193 M154,178 L167,193 " fill="#FEFECE" filter="url(#f1)" style="stroke: #A80036; stroke-width: 2.0;"/><text fill="#000000" font-family="sans-serif" font-size="14" lengthAdjust="spacingAndGlyphs" textLength="52" x="128" y="212.9951">Analytik</text><ellipse cx="252.9093" cy="40.5341" fill="#FEFECE" filter="url(#f1)" rx="31.4093" ry="24.5341" style="stroke: #A80036; stroke-width: 1.5;"/><text fill="#000000" font-family="sans-serif" font-size="14" lengthAdjust="spacingAndGlyphs" textLength="29" x="238.4093" y="34.813">ulož</text><text fill="#000000" font-family="sans-serif" font-size="14" lengthAdjust="spacingAndGlyphs" textLength="43" x="231.4093" y="51.1098">model</text><ellipse cx="154.0848" cy="40.4251" fill="#FEFECE" filter="url(#f1)" rx="32.5848" ry="25.4251" style="stroke: #A80036; stroke-width: 1.5;"/><text fill="#000000" font-family="sans-serif" font-size="14" lengthAdjust="spacingAndGlyphs" textLength="38" x="135.0848" y="36.0327">otevři</text><text fill="#000000" font-family="sans-serif" font-size="14" lengthAdjust="spacingAndGlyphs" textLength="43" x="132.5848" y="52.3296">model</text><ellipse cx="45.9472" cy="40.5577" fill="#FEFECE" filter="url(#f1)" rx="39.9472" ry="32.5577" style="stroke: #A80036; stroke-width: 1.5;"/><text fill="#000000" font-family="sans-serif" font-size="14" lengthAdjust="spacingAndGlyphs" textLength="40" x="25.9472" y="28.5019">vytvoř</text><text fill="#000000" font-family="sans-serif" font-size="14" lengthAdjust="spacingAndGlyphs" textLength="32" x="29.9472" y="44.7987">nový</text><text fill="#000000" font-family="sans-serif" font-size="14" lengthAdjust="spacingAndGlyphs" textLength="43" x="24.4472" y="61.0956">model</text><ellipse cx="58.8706" cy="174.4083" fill="#FEFECE" filter="url(#f1)" rx="33.8706" ry="24.4083" style="stroke: #A80036; stroke-width: 1.5;"/><text fill="#000000" font-family="sans-serif" font-size="14" lengthAdjust="spacingAndGlyphs" textLength="47" x="35.3706" y="173.3226">zobraz</text><text fill="#000000" font-family="sans-serif" font-size="14" lengthAdjust="spacingAndGlyphs" textLength="30" x="43.8706" y="189.6194">ERD</text><ellipse cx="88.2283" cy="311.7606" fill="#FEFECE" filter="url(#f1)" rx="45.7283" ry="24.7606" style="stroke: #A80036; stroke-width: 1.5;"/><text fill="#000000" font-family="sans-serif" font-size="14" lengthAdjust="spacingAndGlyphs" textLength="47" x="64.7283" y="306.3836">zobraz</text><text fill="#000000" font-family="sans-serif" font-size="14" lengthAdjust="spacingAndGlyphs" textLength="64" x="56.2283" y="322.6805">Use case</text><ellipse cx="256.8909" cy="174.5473" fill="#FEFECE" filter="url(#f1)" rx="41.8909" ry="26.0473" style="stroke: #A80036; stroke-width: 1.5;"/><text fill="#000000" font-family="sans-serif" font-size="14" lengthAdjust="spacingAndGlyphs" textLength="55" x="229.3909" y="171.0473">modeluj</text><text fill="#000000" font-family="sans-serif" font-size="14" lengthAdjust="spacingAndGlyphs" textLength="55" x="229.3909" y="187.3441">procesy</text><ellipse cx="220.9087" cy="311.7559" fill="#FEFECE" filter="url(#f1)" rx="51.9087" ry="35.7559" style="stroke: #A80036; stroke-width: 1.5;"/><text fill="#000000" font-family="sans-serif" font-size="14" lengthAdjust="spacingAndGlyphs" textLength="55" x="193.4087" y="297.4652">modeluj</text><text fill="#000000" font-family="sans-serif" font-size="14" lengthAdjust="spacingAndGlyphs" textLength="30" x="205.9087" y="313.7621">data</text><text fill="#000000" font-family="sans-serif" font-size="14" lengthAdjust="spacingAndGlyphs" textLength="73" x="184.4087" y="330.0589">pro aktivity</text><path d="M234.368,66.342 C219.061,86.752 197.2,115.901 180.141,138.646 " fill="none" style="stroke: #A80036; stroke-width: 1.0;"/><polygon fill="#A80036" points="237.531,62.125,228.931,66.925,234.531,66.125,235.331,71.725,237.531,62.125" style="stroke: #A80036; stroke-width: 1.0;"/><path d="M154,71.47 C154,89.606 154,112.977 154,132.774 " fill="none" style="stroke: #A80036; stroke-width: 1.0;"/><polygon fill="#A80036" points="154,66.019,150,75.019,154,71.019,158,75.019,154,66.019" style="stroke: #A80036; stroke-width: 1.0;"/><path d="M70.9306,71.971 C87.9876,92.818 110.557,120.403 127.866,141.558 " fill="none" style="stroke: #A80036; stroke-width: 1.0;"/><polygon fill="#A80036" points="67.5958,67.895,70.1983,77.3938,70.7617,71.765,76.3904,72.3284,67.5958,67.895" style="stroke: #A80036; stroke-width: 1.0;"/><path d="M98.2927,174.5 C108.145,174.5 117.997,174.5 127.849,174.5 " fill="none" style="stroke: #A80036; stroke-width: 1.0;"/><polygon fill="#A80036" points="93.1406,174.5,102.1406,178.5,98.1406,174.5,102.1406,170.5,93.1406,174.5" style="stroke: #A80036; stroke-width: 1.0;"/><path d="M134.198,216.154 C123.697,237.714 111.061,263.6554 101.6604,282.9547 " fill="none" style="stroke: #A80036; stroke-width: 1.0;"/><polygon fill="#A80036" points="99.3435,287.7115,106.8808,281.372,101.533,283.2164,99.6886,277.8687,99.3435,287.7115" style="stroke: #A80036; stroke-width: 1.0;"/><path d="M180.152,174.5 C190.037,174.5 199.921,174.5 209.805,174.5 " fill="none" style="stroke: #A80036; stroke-width: 1.0;"/><polygon fill="#A80036" points="214.974,174.5,205.974,170.5,209.974,174.5,205.974,178.5,214.974,174.5" style="stroke: #A80036; stroke-width: 1.0;"/><path d="M174.102,216.154 C182.981,234.111 193.363,255.1071 202.098,272.7738 " fill="none" style="stroke: #A80036; stroke-width: 1.0;"/><polygon fill="#A80036" points="204.516,277.6631,204.113,267.8225,202.3001,273.181,196.9416,271.368,204.516,277.6631" style="stroke: #A80036; stroke-width: 1.0;"/></g></svg>